<?xml version="1.0" encoding="utf-8"?>
<!-- Generator: Adobe Illustrator 25.2.0, SVG Export Plug-In . SVG Version: 6.00 Build 0)  -->
<svg version="1.1" xmlns="http://www.w3.org/2000/svg" xmlns:xlink="http://www.w3.org/1999/xlink" x="0px" y="0px"
	 viewBox="0 0 1920 1080" style="enable-background:new 0 0 1920 1080;" xml:space="preserve">
<style type="text/css">
	.st0{fill:#53067C;}
	.st1{fill:#B16AE9;}
	.st2{fill:#FFFFFF;}
	.st3{fill:#400C5F;}
	.st4{fill:none;stroke:#400C5F;stroke-width:3;stroke-linecap:round;stroke-miterlimit:10;}
</style>
<g id="Layer_2">
	<g>
		<polygon class="st0" points="667,748.3 109.8,883.3 109.8,10.1 667,148 		"/>
		<g>
			<path class="st1" d="M1619.1,708.7c-61.7,0-109.7-16.4-143.8-49.3c-34.1-32.8-51.2-79.6-51.2-140.2c0-62.6,15.8-110.7,47.5-144.2
				c31.6-33.5,76.8-50.2,135.5-50.2c55.9,0,99,14.6,129.4,43.7s45.7,71.1,45.7,125.8v56.9h-228.8c0.9,20.7,8.5,37,22.7,48.8
				c14.3,11.8,33.8,17.7,58.4,17.7c22.5,0,43.1-2.1,62-6.4c18.9-4.3,39.3-11.5,61.4-21.8v92c-20.1,10.3-40.8,17.3-62.2,21.3
				C1674.3,706.8,1648.8,708.7,1619.1,708.7z M1611.6,411.9c-15.1,0-27.7,4.7-37.8,14.2c-10.1,9.5-16.1,24.4-17.8,44.7h110
				c-0.4-17.9-5.5-32.2-15.2-42.9C1641,417.3,1628,411.9,1611.6,411.9z"/>
		</g>
		<g>
			<path class="st1" d="M1376.8,702.2h-307v-73l153.5-200h-144.7v-97.9h290.9v79.2l-146.9,193.7h154.1V702.2z"/>
		</g>
		<g>
			<path class="st1" d="M887,239.1c0-19.2,5.3-33.5,16-42.9c10.7-9.4,27.9-14.1,51.7-14.1c23.8,0,41.1,4.8,52,14.4
				c10.9,9.6,16.4,23.8,16.4,42.5c0,37.5-22.8,56.3-68.4,56.3C909.6,295.4,887,276.6,887,239.1z M1018.2,702.2h-128V331.4h128V702.2
				z"/>
		</g>
		<g>
			<path class="st1" d="M841.9,702.2h-128V193h128V702.2z"/>
		</g>
		<g>
			<path class="st2" d="M488.8,702.2l-23.6-89.7H309.8l-24.2,89.7h-142l156.1-480.4h172.5l158.1,480.4H488.8z M438.4,506.5
				l-20.6-78.5c-4.8-17.5-10.6-40-17.5-67.7c-6.9-27.7-11.4-47.6-13.6-59.6c-2,11.1-5.8,29.5-11.6,55
				c-5.8,25.5-18.6,75.8-38.5,150.9H438.4z"/>
		</g>
		<g>
			<path class="st3" d="M384.7,999c-9.7-2.8-16.8-6.2-21.2-10.3c-4.4-4.1-6.6-9.1-6.6-15.1c0-6.8,2.7-12.3,8.1-16.8
				c5.4-4.4,12.4-6.6,21.1-6.6c5.9,0,11.1,1.1,15.8,3.4c4.6,2.3,8.2,5.4,10.7,9.4c2.5,4,3.8,8.4,3.8,13.1H405
				c0-5.2-1.6-9.3-4.9-12.3c-3.3-3-8-4.5-14-4.5c-5.6,0-9.9,1.2-13,3.7c-3.1,2.5-4.7,5.9-4.7,10.2c0,3.5,1.5,6.5,4.4,8.9
				c3,2.4,8,4.6,15.1,6.6c7.1,2,12.7,4.2,16.7,6.6c4,2.4,7,5.2,9,8.5c1.9,3.2,2.9,7,2.9,11.4c0,7-2.7,12.5-8.1,16.7
				c-5.4,4.2-12.7,6.3-21.7,6.3c-5.9,0-11.4-1.1-16.5-3.4c-5.1-2.3-9-5.4-11.8-9.3c-2.8-3.9-4.2-8.4-4.2-13.4h11.4
				c0,5.2,1.9,9.3,5.7,12.3c3.8,3,8.9,4.5,15.3,4.5c6,0,10.5-1.2,13.7-3.7c3.2-2.4,4.8-5.8,4.8-10c0-4.2-1.5-7.5-4.4-9.8
				C397.8,1003.5,392.5,1001.2,384.7,999z"/>
			<path class="st3" d="M497,997.1c0,8.4-1.4,15.7-4.2,22s-6.8,11-12,14.3s-11.2,4.9-18.1,4.9c-6.8,0-12.7-1.7-18-5
				c-5.2-3.3-9.3-8-12.2-14.2c-2.9-6.1-4.4-13.3-4.4-21.4v-6.2c0-8.2,1.4-15.5,4.3-21.9c2.9-6.3,6.9-11.2,12.2-14.5
				c5.2-3.4,11.2-5,18-5c6.9,0,12.9,1.7,18.2,5c5.2,3.3,9.3,8.1,12.1,14.4c2.8,6.3,4.2,13.6,4.2,22V997.1z M485.8,991.6
				c0-10.2-2-18-6.1-23.4c-4.1-5.4-9.8-8.2-17.1-8.2c-7.1,0-12.8,2.7-16.9,8.2c-4.1,5.4-6.2,13-6.3,22.7v6.3
				c0,9.9,2.1,17.6,6.2,23.2c4.1,5.6,9.8,8.5,17.1,8.5c7.3,0,13-2.7,17-8c4-5.3,6.1-13,6.2-22.9V991.6z"/>
			<path class="st3" d="M561.3,999.3h-36v37.9H514v-85.8h53.1v9.2h-41.8v29.4h36V999.3z"/>
			<path class="st3" d="M641.1,960.7h-27.6v76.5h-11.3v-76.5h-27.5v-9.2h66.3V960.7z"/>
			<path class="st3" d="M673.2,1010.2l1.6,11.3l2.4-10.2l17-59.9h9.5l16.6,59.9l2.4,10.4l1.8-11.5l13.3-58.7h11.4l-20.8,85.8h-10.3
				l-17.7-62.5l-1.4-6.5l-1.4,6.5l-18.3,62.5h-10.3l-20.7-85.8h11.3L673.2,1010.2z"/>
			<path class="st3" d="M806.6,1014.8h-35.9l-8.1,22.4h-11.7l32.8-85.8h9.9l32.8,85.8h-11.6L806.6,1014.8z M774.1,1005.5h29.2
				l-14.6-40.1L774.1,1005.5z"/>
			<path class="st3" d="M869.4,1002.5h-20.1v34.7h-11.4v-85.8h28.4c9.7,0,17.1,2.2,22.3,6.6c5.2,4.4,7.8,10.8,7.8,19.2
				c0,5.3-1.4,10-4.3,14c-2.9,4-6.9,6.9-12,8.9l20.1,36.4v0.7H888L869.4,1002.5z M849.2,993.3h17.4c5.6,0,10.1-1.5,13.4-4.4
				c3.3-2.9,5-6.8,5-11.7c0-5.3-1.6-9.4-4.7-12.2c-3.2-2.8-7.7-4.3-13.7-4.3h-17.3V993.3z"/>
			<path class="st3" d="M960.7,997.6h-37.2v30.4h43.2v9.2h-54.5v-85.8h53.9v9.2h-42.6v27.6h37.2V997.6z"/>
			<path class="st3" d="M1035.9,999c-9.7-2.8-16.8-6.2-21.2-10.3c-4.4-4.1-6.6-9.1-6.6-15.1c0-6.8,2.7-12.3,8.1-16.8
				c5.4-4.4,12.4-6.6,21.1-6.6c5.9,0,11.1,1.1,15.8,3.4c4.6,2.3,8.2,5.4,10.7,9.4s3.8,8.4,3.8,13.1h-11.4c0-5.2-1.6-9.3-4.9-12.3
				c-3.3-3-8-4.5-14-4.5c-5.6,0-9.9,1.2-13,3.7c-3.1,2.5-4.7,5.9-4.7,10.2c0,3.5,1.5,6.5,4.4,8.9c3,2.4,8,4.6,15.1,6.6
				c7.1,2,12.7,4.2,16.7,6.6c4,2.4,7,5.2,9,8.5c1.9,3.2,2.9,7,2.9,11.4c0,7-2.7,12.5-8.1,16.7c-5.4,4.2-12.7,6.3-21.7,6.3
				c-5.9,0-11.4-1.1-16.5-3.4c-5.1-2.3-9-5.4-11.8-9.3c-2.8-3.9-4.2-8.4-4.2-13.4h11.4c0,5.2,1.9,9.3,5.7,12.3
				c3.8,3,8.9,4.5,15.3,4.5c6,0,10.5-1.2,13.7-3.7c3.2-2.4,4.8-5.8,4.8-10c0-4.2-1.5-7.5-4.4-9.8
				C1049,1003.5,1043.7,1001.2,1035.9,999z"/>
			<path class="st3" d="M1130.7,997.6h-37.2v30.4h43.2v9.2h-54.5v-85.8h53.9v9.2h-42.6v27.6h37.2V997.6z"/>
			<path class="st3" d="M1182.3,1002.5h-20.1v34.7h-11.4v-85.8h28.4c9.7,0,17.1,2.2,22.3,6.6c5.2,4.4,7.8,10.8,7.8,19.2
				c0,5.3-1.4,10-4.3,14c-2.9,4-6.9,6.9-12,8.9l20.1,36.4v0.7h-12.1L1182.3,1002.5z M1162.1,993.3h17.4c5.6,0,10.1-1.5,13.4-4.4
				c3.3-2.9,5-6.8,5-11.7c0-5.3-1.6-9.4-4.7-12.2c-3.2-2.8-7.7-4.3-13.7-4.3h-17.3V993.3z"/>
			<path class="st3" d="M1252.4,1022.2l24.5-70.8h12.4l-31.8,85.8h-10l-31.8-85.8h12.3L1252.4,1022.2z"/>
			<path class="st3" d="M1312.9,1037.2h-11.3v-85.8h11.3V1037.2z"/>
			<path class="st3" d="M1396.6,1010c-1.1,9.1-4.4,16.1-10,21c-5.6,4.9-13.1,7.4-22.5,7.4c-10.1,0-18.3-3.6-24.4-10.9
				c-6.1-7.3-9.2-17-9.2-29.2v-8.2c0-8,1.4-15,4.3-21c2.8-6,6.9-10.7,12.1-13.9c5.2-3.2,11.3-4.9,18.1-4.9c9.1,0,16.4,2.5,21.9,7.6
				s8.7,12.1,9.6,21.1h-11.4c-1-6.9-3.1-11.8-6.4-14.9c-3.3-3.1-7.9-4.6-13.8-4.6c-7.2,0-12.9,2.7-17,8c-4.1,5.3-6.2,13-6.2,22.8
				v8.3c0,9.3,1.9,16.7,5.8,22.2c3.9,5.5,9.3,8.3,16.3,8.3c6.3,0,11.1-1.4,14.5-4.3c3.4-2.8,5.6-7.8,6.7-14.9H1396.6z"/>
			<path class="st3" d="M1460.5,997.6h-37.2v30.4h43.2v9.2h-54.5v-85.8h53.9v9.2h-42.6v27.6h37.2V997.6z"/>
			<path class="st3" d="M1505.9,999c-9.7-2.8-16.8-6.2-21.2-10.3c-4.4-4.1-6.6-9.1-6.6-15.1c0-6.8,2.7-12.3,8.1-16.8
				c5.4-4.4,12.4-6.6,21.1-6.6c5.9,0,11.1,1.1,15.8,3.4c4.6,2.3,8.2,5.4,10.7,9.4s3.8,8.4,3.8,13.1h-11.4c0-5.2-1.6-9.3-4.9-12.3
				c-3.3-3-8-4.5-14-4.5c-5.6,0-9.9,1.2-13,3.7c-3.1,2.5-4.7,5.9-4.7,10.2c0,3.5,1.5,6.5,4.4,8.9c3,2.4,8,4.6,15.1,6.6
				c7.1,2,12.7,4.2,16.7,6.6c4,2.4,7,5.2,9,8.5c1.9,3.2,2.9,7,2.9,11.4c0,7-2.7,12.5-8.1,16.7c-5.4,4.2-12.7,6.3-21.7,6.3
				c-5.9,0-11.4-1.1-16.5-3.4c-5.1-2.3-9-5.4-11.8-9.3c-2.8-3.9-4.2-8.4-4.2-13.4h11.4c0,5.2,1.9,9.3,5.7,12.3
				c3.8,3,8.9,4.5,15.3,4.5c6,0,10.5-1.2,13.7-3.7c3.2-2.4,4.8-5.8,4.8-10c0-4.2-1.5-7.5-4.4-9.8
				C1519,1003.5,1513.6,1001.2,1505.9,999z"/>
		</g>
		<line class="st4" x1="170.5" y1="992" x2="315" y2="992"/>
		<line class="st4" x1="1584.7" y1="993.5" x2="1729.3" y2="993.5"/>
	</g>
</g>
<g id="Layer_3">
	<polygon class="st0" points="-496.8,672.7 -663.1,713 -663.1,452.4 -496.8,493.6 	"/>
	<g>
		<path class="st2" d="M-531.5,889.1h-50l-7.6,23h-41.2l51.4-141h45.2l51.2,141h-41.4L-531.5,889.1z M-541.3,859.1l-15.2-45.6
			l-15,45.6H-541.3z"/>
		<path class="st1" d="M-430.5,764.1v148h-39.2v-148H-430.5z"/>
		<path class="st1" d="M-405,783.8c-4.2-3.8-6.3-8.6-6.3-14.3c0-5.9,2.1-10.7,6.3-14.6c4.2-3.9,9.8-5.8,16.7-5.8
			c6.8,0,12.3,1.9,16.5,5.8c4.2,3.9,6.3,8.7,6.3,14.6c0,5.7-2.1,10.5-6.3,14.3s-9.7,5.7-16.5,5.7
			C-395.3,789.5-400.8,787.6-405,783.8z M-368.9,799.9v112.2h-39.2V799.9H-368.9z"/>
		<path class="st1" d="M-309.3,879.5h47.8v32.6h-91v-31l44.6-48.6h-44.2v-32.6h89v31L-309.3,879.5z"/>
		<path class="st1" d="M-138.5,863.9h-74.2c0.4,6.1,2.1,10.7,5.1,13.7s6.8,4.5,11.5,4.5c6.5,0,11.2-2.9,14-8.8h41.8
			c-1.7,7.7-5.1,14.6-10.1,20.7c-5,6.1-11.3,10.8-18.9,14.3c-7.6,3.5-16,5.2-25.2,5.2c-11.1,0-20.9-2.3-29.5-7
			c-8.6-4.7-15.3-11.3-20.2-20c-4.9-8.7-7.3-18.9-7.3-30.6c0-11.7,2.4-21.9,7.2-30.5c4.8-8.6,11.5-15.2,20.1-19.9
			c8.6-4.7,18.5-7,29.7-7c11.1,0,20.9,2.3,29.4,6.8c8.5,4.5,15.2,11,20,19.5c4.8,8.5,7.2,18.4,7.2,29.9
			C-137.9,857.8-138.1,860.8-138.5,863.9z M-177.9,844.9c0-4.8-1.6-8.6-4.8-11.3c-3.2-2.7-7.2-4.1-12-4.1c-4.8,0-8.7,1.3-11.8,3.9
			c-3.1,2.6-5.1,6.4-6,11.5H-177.9z"/>
	</g>
	<g>
		<path class="st2" d="M-554.8,412.3l-7-26.8h-46.4l-7.2,26.8h-42.4l46.6-143.4h51.5l47.2,143.4H-554.8z M-569.8,353.9l-6.2-23.4
			c-1.4-5.2-3.2-11.9-5.2-20.2c-2.1-8.3-3.4-14.2-4.1-17.8c-0.6,3.3-1.7,8.8-3.5,16.4c-1.7,7.6-5.6,22.6-11.5,45H-569.8z"/>
		<path class="st1" d="M-461.2,412.3h-38.2v-152h38.2V412.3z"/>
		<path class="st1" d="M-435.5,274.1c0-5.7,1.6-10,4.8-12.8c3.2-2.8,8.3-4.2,15.4-4.2c7.1,0,12.3,1.4,15.5,4.3
			c3.3,2.9,4.9,7.1,4.9,12.7c0,11.2-6.8,16.8-20.4,16.8C-428.8,290.9-435.5,285.3-435.5,274.1z M-396.4,412.3h-38.2V301.7h38.2
			V412.3z"/>
		<path class="st1" d="M-286.5,412.3h-91.6v-21.8l45.8-59.7h-43.2v-29.2h86.8v23.6l-43.8,57.8h46V412.3z"/>
		<path class="st1" d="M-214.9,414.3c-18.4,0-32.7-4.9-42.9-14.7c-10.2-9.8-15.3-23.7-15.3-41.8c0-18.7,4.7-33,14.2-43
			c9.4-10,22.9-15,40.4-15c16.7,0,29.5,4.3,38.6,13s13.6,21.2,13.6,37.5v17h-68.3c0.3,6.2,2.5,11,6.8,14.6
			c4.3,3.5,10.1,5.3,17.4,5.3c6.7,0,12.9-0.6,18.5-1.9c5.6-1.3,11.7-3.4,18.3-6.5v27.4c-6,3.1-12.2,5.2-18.6,6.3
			C-198.5,413.7-206.1,414.3-214.9,414.3z M-217.2,325.7c-4.5,0-8.3,1.4-11.3,4.2s-4.8,7.3-5.3,13.3h32.8c-0.1-5.3-1.6-9.6-4.5-12.8
			C-208.4,327.3-212.3,325.7-217.2,325.7z"/>
	</g>
	<g>
		<path class="st1" d="M-156.7,614.7h-74.2c0.4,6.1,2.1,10.7,5.1,13.7s6.8,4.5,11.5,4.5c6.5,0,11.2-2.9,14-8.8h41.8
			c-1.7,7.7-5.1,14.6-10.1,20.7c-5,6.1-11.3,10.8-18.9,14.3c-7.6,3.5-16,5.2-25.2,5.2c-11.1,0-20.9-2.3-29.5-7
			c-8.6-4.7-15.3-11.3-20.2-20c-4.9-8.7-7.3-18.9-7.3-30.6c0-11.7,2.4-21.9,7.2-30.5c4.8-8.6,11.5-15.2,20.1-19.9
			c8.6-4.7,18.5-7,29.7-7c11.1,0,20.9,2.3,29.4,6.8c8.5,4.5,15.2,11,20,19.5c4.8,8.5,7.2,18.4,7.2,29.9
			C-156.1,608.6-156.3,611.6-156.7,614.7z M-196.1,595.7c0-4.8-1.6-8.6-4.8-11.3c-3.2-2.7-7.2-4.1-12-4.1c-4.8,0-8.7,1.3-11.8,3.9
			c-3.1,2.6-5.1,6.4-6,11.5H-196.1z"/>
	</g>
	<g>
		<path class="st1" d="M-328.6,630.3h47.8v32.6h-91v-31l44.6-48.6h-44.2v-32.6h89v31L-328.6,630.3z"/>
	</g>
	<g>
		<path class="st2" d="M-551.3,639.9h-50l-7.6,23h-41.2l51.4-141h45.2l51.2,141h-41.4L-551.3,639.9z M-561.1,609.9l-15.2-45.6
			l-15,45.6H-561.1z"/>
	</g>
	<g>
		<path class="st1" d="M-136.8,865.7H-211c0.4,6.1,2.1,10.7,5.1,13.7s6.8,4.5,11.5,4.5c6.5,0,11.2-2.9,14-8.8h41.8
			c-1.7,7.7-5.1,14.6-10.1,20.7c-5,6.1-11.3,10.8-18.9,14.3c-7.6,3.5-16,5.2-25.2,5.2c-11.1,0-20.9-2.3-29.5-7
			c-8.6-4.7-15.3-11.3-20.2-20c-4.9-8.7-7.3-18.9-7.3-30.6c0-11.7,2.4-21.9,7.2-30.5c4.8-8.6,11.5-15.2,20.1-19.9
			c8.6-4.7,18.5-7,29.7-7c11.1,0,20.9,2.3,29.4,6.8c8.5,4.5,15.2,11,20,19.5c4.8,8.5,7.2,18.4,7.2,29.9
			C-136.2,859.6-136.4,862.6-136.8,865.7z M-176.2,846.7c0-4.8-1.6-8.6-4.8-11.3c-3.2-2.7-7.2-4.1-12-4.1c-4.8,0-8.7,1.3-11.8,3.9
			c-3.1,2.6-5.1,6.4-6,11.5H-176.2z"/>
	</g>
	<g>
		<path class="st1" d="M-304.9,879.4h47.8V912h-91v-31l44.6-48.6h-44.2v-32.6h89v31L-304.9,879.4z"/>
	</g>
	<g>
		<path class="st1" d="M-424.1,534.6c-4.2-3.8-6.3-8.6-6.3-14.3c0-5.9,2.1-10.7,6.3-14.6c4.2-3.9,9.8-5.8,16.7-5.8
			c6.8,0,12.3,1.9,16.5,5.8c4.2,3.9,6.3,8.7,6.3,14.6c0,5.7-2.1,10.5-6.3,14.3c-4.2,3.8-9.7,5.7-16.5,5.7
			C-414.3,540.3-419.9,538.4-424.1,534.6z M-388,550.7v112.2h-39.2V550.7H-388z"/>
	</g>
	<g>
		<path class="st1" d="M-441.1,514.9v148h-39.2v-148H-441.1z"/>
	</g>
	<g>
	</g>
	<g>
	</g>
	<g>
	</g>
	<g>
	</g>
	<g>
	</g>
	<g>
	</g>
</g>
</svg>
